<?xml version="1.0" encoding="UTF-8"?>
<svg data-name="Layer 1" viewBox="0 0 521.71 170.66" xmlns="http://www.w3.org/2000/svg">
<defs>
<style>.cls-1{fill:#fff;}</style>
</defs>
<title>appstore</title>
<path transform="translate(-99.3 -509.16)" d="M621,656.75A23.06,23.06,0,0,1,598,679.82H122.36A23.07,23.07,0,0,1,99.3,656.75V532.22a23.07,23.07,0,0,1,23.06-23.06H598A23.06,23.06,0,0,1,621,532.22Z"/>
<path class="cls-1" transform="translate(-99.3 -509.16)" d="M235.35,622a85.57,85.57,0,0,1-7.64,14.27c-5,7.55-12,17-20.62,17-7.7.07-9.68-5-20.13-5s-12.63,5-20.33,5c-8.67-.08-15.29-8.57-20.25-16.12-13.88-21.12-15.33-45.91-6.77-59.09,6.08-9.36,15.67-14.84,24.69-14.84,9.19,0,15,5,22.55,5,7.37,0,11.86-5,22.47-5,8,0,16.53,4.37,22.59,11.93C212.06,586,215.29,614.38,235.35,622Z"/>
<path class="cls-1" transform="translate(-99.3 -509.16)" d="m201.27 554.78c3.86-4.95 6.79-11.94 5.72-19.09-6.3 0.43-13.67 4.44-18 9.67-3.91 4.74-7.13 11.78-5.88 18.62 6.89 0.21 14.03-3.89 18.16-9.2z"/>
<path class="cls-1" transform="translate(-99.3 -509.16)" d="m277.61 577.75-19.87 58.51h9.1l5.94-18h19.22l6.1 18h9.35l-20-58.51zm4.72 9.62c0.67 2.61 1.4 5.33 2.33 8.26l5.34 15.51h-15.23l5.28-15.62c0.81-2.52 1.57-5.26 2.28-8.15z"/>
<path class="cls-1" transform="translate(-99.3 -509.16)" d="M333.19,592.92c-6,0-10.85,2.33-14.07,6.75l-.35-5.82h-8.1l.05.75c.24,3.62.34,7.61.34,13.34V653h8.85V632a15.57,15.57,0,0,0,12.1,5.2,18.26,18.26,0,0,0,13.41-5.7c3.88-4.1,5.92-10,5.92-17,0-6.22-1.77-11.6-5.14-15.55A16.84,16.84,0,0,0,333.19,592.92Zm-2.2,7.33c7.89,0,11.42,7.31,11.42,14.55,0,9.34-4.51,15.15-11.76,15.15a10.74,10.74,0,0,1-10.43-8.22,11.51,11.51,0,0,1-.31-2.86v-7.12a13,13,0,0,1,.28-2.19c.05-.24.09-.48.13-.71A11.2,11.2,0,0,1,331,600.25Z"/>
<path class="cls-1" transform="translate(-99.3 -509.16)" d="M378.77,592.92c-6,0-10.85,2.33-14.07,6.75l-.35-5.82h-8.1l.05.75c.24,3.62.34,7.61.34,13.34V653h8.85V632a15.57,15.57,0,0,0,12.1,5.2,18.3,18.3,0,0,0,13.42-5.7c3.87-4.1,5.92-10,5.92-17,0-6.22-1.78-11.6-5.15-15.55A16.84,16.84,0,0,0,378.77,592.92Zm-2.2,7.33c7.89,0,11.42,7.31,11.42,14.55,0,9.34-4.51,15.15-11.76,15.15a10.74,10.74,0,0,1-10.43-8.22,11.51,11.51,0,0,1-.31-2.86v-7.12a12.88,12.88,0,0,1,.28-2.19c.05-.24.09-.48.13-.71A11.2,11.2,0,0,1,376.57,600.25Z"/>
<path class="cls-1" transform="translate(-99.3 -509.16)" d="M435.88,602.54c-8.27-3.2-10.91-5.71-10.91-10.36,0-3.92,3.11-7.86,10.06-7.86a20.07,20.07,0,0,1,10.39,2.61l.75.46,2.5-7.39-.5-.29c-1.48-.87-5.71-2.89-12.89-2.89-11.28,0-19.17,6.67-19.17,16.2,0,7.7,4.94,13.07,15.54,16.93,7.51,2.8,10.31,5.68,10.31,10.61,0,5.58-4.32,9-11.26,9A24.22,24.22,0,0,1,418,626l-.77-.49-2.38,7.55.44.29c3.34,2.23,9.63,3.85,15,3.85,15.21,0,20.61-9.28,20.61-17.22C450.81,611.78,446.48,606.73,435.88,602.54Z"/>
<path class="cls-1" transform="translate(-99.3 -509.16)" d="M466.74,583.77l-8.68,2.73v7.35H451.7v7.08h6.36V622.6c0,5.23,1,8.91,3.06,11.23a11.38,11.38,0,0,0,8.57,3.36,20.71,20.71,0,0,0,6.84-1.06l.5-.17-.43-7.09-.85.26a13.5,13.5,0,0,1-4.12.47c-3.43,0-4.89-2.17-4.89-7.26V600.93h10.68v-7.08H466.74Z"/>
<path class="cls-1" transform="translate(-99.3 -509.16)" d="m499.35 592.92c-12.38 0-21 9.24-21 22.47 0 12.84 8.37 21.8 20.36 21.8h0.08c10.13 0 21-7.06 21-22.56 0-6.3-1.95-11.71-5.64-15.66a19.68 19.68 0 0 0-14.8-6.05zm-0.25 7c8 0 11.59 7.76 11.59 15 0 8.87-4.95 15.31-11.76 15.31h-0.09c-6.71 0-11.58-6.33-11.58-15.06 0-7.61 3.66-15.26 11.84-15.26z"/>
<path class="cls-1" transform="translate(-99.3 -509.16)" d="M546.9,593.33l-.53-.13a8.3,8.3,0,0,0-2.2-.28,12.63,12.63,0,0,0-11.1,7.13l-.26-6.2h-7.94l0,.75c.24,3.5.33,7.43.33,12.74l-.08,28.92H534V613.7a22.74,22.74,0,0,1,.25-3.43c1-5.42,4.65-8.92,9.31-8.92a20.87,20.87,0,0,1,2.37.15l.95.09Z"/>
<path class="cls-1" transform="translate(-99.3 -509.16)" d="m566.8 592.84c-11.78 0-20 9.41-20 22.89 0 13 8.19 21.37 20.86 21.37a34.06 34.06 0 0 0 14-2.68l0.54-0.24-1.7-6.6-0.74 0.3a27.45 27.45 0 0 1-11.09 2c-3.85 0-12.72-1.27-13.26-12.83l28.57 0.08 0.12-0.56a19.79 19.79 0 0 0 0.26-3.7c0-9.25-4.6-20.03-17.56-20.03zm-0.59 6.73a8.7 8.7 0 0 1 6.5 2.48c2.55 2.59 3 6.41 3 8.24h-20.14c0.82-5.11 4.02-10.72 10.64-10.72z"/>
<path class="cls-1" transform="translate(-99.3 -509.16)" d="M257.74,537.79a64.13,64.13,0,0,1,8.49-.58c5.71,0,9.77,1.15,12.46,3.41s4.39,5.51,4.39,10a14,14,0,0,1-4.43,10.76c-2.92,2.59-7.67,4-13.65,4a63.31,63.31,0,0,1-7.26-.32Zm4,24.52a27.63,27.63,0,0,0,4,.17c8.49,0,13.09-4.27,13.09-11.75.05-6.61-4.06-10.68-12.46-10.68a24.56,24.56,0,0,0-4.65.37Z"/>
<path class="cls-1" transform="translate(-99.3 -509.16)" d="M297.31,565.56c-5.93,0-10.59-3.94-10.59-10.23,0-6.65,4.89-10.56,11-10.56,6.34,0,10.63,4.15,10.63,10.19,0,7.4-5.7,10.6-10.95,10.6Zm.14-2.71c3.83,0,6.71-3.25,6.71-7.77,0-3.36-1.87-7.6-6.62-7.6s-6.76,3.95-6.76,7.73c0,4.35,2.74,7.64,6.62,7.64Z"/>
<path class="cls-1" transform="translate(-99.3 -509.16)" d="M314.67,545.22l3,10.07c.6,2.22,1.19,4.31,1.6,6.37h.14c.5-2,1.23-4.15,2-6.33l3.61-10.11h3.38l3.42,9.95c.82,2.34,1.46,4.47,2,6.49h.14a53.48,53.48,0,0,1,1.69-6.45l3.15-10h4l-7.12,19.89h-3.65l-3.38-9.49a64.5,64.5,0,0,1-2-6.57h-.08a56.8,56.8,0,0,1-2,6.61l-3.56,9.45h-3.66l-6.66-19.89Z"/>
<path class="cls-1" transform="translate(-99.3 -509.16)" d="M346.67,550.61c0-2.1-.05-3.74-.18-5.39h3.56l.23,3.25h.09a8.36,8.36,0,0,1,7.3-3.7c3.06,0,7.81,1.65,7.81,8.47v11.87h-4V553.65c0-3.21-1.33-5.92-5.11-5.92a5.74,5.74,0,0,0-5.39,3.7,4.93,4.93,0,0,0-.27,1.68v12h-4Z"/>
<path class="cls-1" transform="translate(-99.3 -509.16)" d="m372 535.94h4v29.17h-4z"/>
<path class="cls-1" transform="translate(-99.3 -509.16)" d="M391.68,565.56c-5.93,0-10.59-3.94-10.59-10.23,0-6.65,4.88-10.56,11-10.56,6.35,0,10.64,4.15,10.64,10.19,0,7.4-5.71,10.6-11,10.6Zm.13-2.71c3.84,0,6.72-3.25,6.72-7.77,0-3.36-1.88-7.6-6.62-7.6s-6.76,3.95-6.76,7.73c0,4.35,2.74,7.64,6.62,7.64Z"/>
<path class="cls-1" transform="translate(-99.3 -509.16)" d="M423.31,560.34a31.14,31.14,0,0,0,.32,4.77H420l-.37-2.51h-.13a8.51,8.51,0,0,1-6.76,3c-4.47,0-6.75-2.83-6.75-5.71,0-4.81,4.74-7.44,13.28-7.4V552c0-1.64-.5-4.64-5-4.6a11.59,11.59,0,0,0-5.8,1.48l-.91-2.42a15.46,15.46,0,0,1,7.3-1.73c6.8,0,8.44,4.15,8.44,8.14ZM419.39,555c-4.38-.08-9.36.62-9.36,4.48,0,2.38,1.74,3.45,3.75,3.45a5.57,5.57,0,0,0,5.43-3.33,3.29,3.29,0,0,0,.18-1.15Z"/>
<path class="cls-1" transform="translate(-99.3 -509.16)" d="M448.83,535.94v24c0,1.77.05,3.78.19,5.14h-3.61l-.18-3.45h-.09c-1.24,2.22-3.88,3.9-7.49,3.9-5.34,0-9.5-4.07-9.5-10.11,0-6.65,4.57-10.68,9.91-10.68,3.43,0,5.71,1.44,6.67,3h.09V535.94Zm-4,17.38a5.9,5.9,0,0,0-.19-1.56,5.8,5.8,0,0,0-5.79-4.15c-4.16,0-6.62,3.28-6.62,7.64,0,4.07,2.23,7.39,6.52,7.39a6,6,0,0,0,5.89-4.31,5.56,5.56,0,0,0,.19-1.56Z"/>
<path class="cls-1" transform="translate(-99.3 -509.16)" d="M474.17,565.56c-5.94,0-10.59-3.94-10.59-10.23,0-6.65,4.88-10.56,10.95-10.56,6.35,0,10.64,4.15,10.64,10.19,0,7.4-5.71,10.6-10.95,10.6Zm.14-2.71c3.83,0,6.71-3.25,6.71-7.77,0-3.36-1.87-7.6-6.62-7.6s-6.76,3.95-6.76,7.73c0,4.35,2.74,7.64,6.62,7.64Z"/>
<path class="cls-1" transform="translate(-99.3 -509.16)" d="M490.24,550.61c0-2.1-.05-3.74-.18-5.39h3.56l.23,3.25h.09a8.36,8.36,0,0,1,7.3-3.7c3.06,0,7.81,1.65,7.81,8.47v11.87h-4V553.65c0-3.21-1.32-5.92-5.11-5.92a5.75,5.75,0,0,0-5.39,3.7,4.93,4.93,0,0,0-.27,1.68v12h-4Z"/>
<path class="cls-1" transform="translate(-99.3 -509.16)" d="M530.09,540.46v4.76h5.75V548h-5.75V558.7c0,2.46.78,3.86,3,3.86a8,8,0,0,0,2.32-.25l.18,2.76a12.22,12.22,0,0,1-3.56.49,6.09,6.09,0,0,1-4.33-1.52c-1.1-1.11-1.55-2.88-1.55-5.22V548h-3.43v-2.76h3.43v-3.65Z"/>
<path class="cls-1" transform="translate(-99.3 -509.16)" d="M540.36,535.94h4v12.41h.09a6.85,6.85,0,0,1,2.88-2.55,8.44,8.44,0,0,1,4.11-1c3,0,7.71,1.65,7.71,8.51v11.83h-4V553.69c0-3.25-1.32-5.92-5.11-5.92a5.79,5.79,0,0,0-5.39,3.62,4.07,4.07,0,0,0-.27,1.72v12h-4Z"/>
<path class="cls-1" transform="translate(-99.3 -509.16)" d="M568,555.78c.09,4.89,3.52,6.9,7.53,6.9a16.83,16.83,0,0,0,6.12-1l.73,2.54a19.57,19.57,0,0,1-7.39,1.28c-6.76,0-10.87-4.07-10.87-10s4-10.77,10.41-10.77c7.21,0,9.08,5.71,9.08,9.37a8.51,8.51,0,0,1-.13,1.72Zm11.73-2.59c0-2.26-1.05-5.87-5.52-5.87-4.11,0-5.84,3.37-6.16,5.87Z"/>
</svg>
