<?xml version="1.0" encoding="UTF-8"?>
<svg data-name="Layer 1" viewBox="0 0 521.66 170.64" xmlns="http://www.w3.org/2000/svg">
<defs>
<style>.cls-1{fill:none;}.cls-2{clip-path:url(#e);}.cls-3{fill:url(#d);}.cls-4{fill:url(#c);}.cls-5{fill:url(#b);}.cls-6{fill:url(#a);}.cls-7{fill:#f9f9f9;}.cls-8{fill:#f9f9fa;}</style>
<clipPath id="e" transform="translate(-91.55 -294.41)">
<path class="cls-1" d="m204.6 369.52-23.52-13.58-45.37-26.2c-2.52-1.45-5-0.57-5 2.47v106.73c0 2.28 1.8 3.26 4 2l69.94-40.38 22.61-13.05c2.65-1.54 2.4-3.64 0.16-4.84s-22.82-13.15-22.82-13.15z"/>
</clipPath>
<linearGradient id="d" x1="68.26" x2="68.26" y1="32.85" y2="148.41" gradientUnits="userSpaceOnUse">
<stop stop-color="#257cb0" offset="0"/>
<stop stop-color="#3c8fb3" offset=".21"/>
<stop stop-color="#73bdba" offset=".74"/>
<stop stop-color="#89cfbd" offset="1"/>
</linearGradient>
<linearGradient id="c" x1="39.13" x2="113.05" y1="61.53" y2="61.53" gradientUnits="userSpaceOnUse">
<stop stop-color="#52c1ad" offset="0"/>
<stop stop-color="#dee89a" offset="1"/>
</linearGradient>
<linearGradient id="b" x1="76.09" x2="76.09" y1="90.63" y2="148.83" gradientUnits="userSpaceOnUse">
<stop stop-color="#ec413d" offset="0"/>
<stop stop-color="#d74352" offset=".19"/>
<stop stop-color="#a04888" offset=".74"/>
<stop stop-color="#8a4a9d" offset="1"/>
</linearGradient>
<linearGradient id="a" x1="118.66" x2="118.66" y1="75.11" y2="106.15" gradientUnits="userSpaceOnUse">
<stop stop-color="#f58879" offset="0"/>
<stop stop-color="#fbb276" offset=".62"/>
<stop stop-color="#fec874" offset="1"/>
</linearGradient>
</defs>
<title>googleplay</title>
<path transform="translate(-91.55 -294.41)" d="M613.21,442a23.06,23.06,0,0,1-23.06,23.06H114.61A23.07,23.07,0,0,1,91.55,442V317.47a23.07,23.07,0,0,1,23.06-23.06H590.15a23.06,23.06,0,0,1,23.06,23.06Z"/>
<g class="cls-2">
<polygon class="cls-3" points="39.13 32.85 39.13 90.63 39.13 148.41 97.4 90.63"/>
<polygon class="cls-4" points="113.05 75.11 89.53 61.53 39.13 32.43 39.13 32.85 97.4 90.63"/>
<polygon class="cls-5" points="39.13 148.41 39.13 148.83 89.53 119.73 113.05 106.15 97.4 90.63"/>
<polygon class="cls-6" points="113.05 75.11 97.4 90.63 113.05 106.15 139.93 90.63"/>
</g>
<path class="cls-7" transform="translate(-91.55 -294.41)" d="m497.53 407.63a14.44 14.44 0 0 1-6-1.21 11.31 11.31 0 0 1-4.56-3.73h-0.37a44.38 44.38 0 0 1 0.37 5.58v13.83h-5.09v-48.69h4.12l0.71 4.6h0.29a11.92 11.92 0 0 1 4.57-4 14 14 0 0 1 6-1.22q6.69 0 10.32 4.57t3.63 12.81q0 8.28-3.69 12.87a12.45 12.45 0 0 1-10.3 4.59zm-0.74-30.51q-5.15 0-7.45 2.85t-2.34 9.08v1.13c0 4.73 0.79 8.1 2.36 10.14s4.1 3.05 7.58 3.05a7.87 7.87 0 0 0 6.82-3.53q2.47-3.52 2.47-9.72t-2.47-9.64a8.11 8.11 0 0 0-6.97-3.36z"/>
<path class="cls-7" transform="translate(-91.55 -294.41)" d="m523.27 407h-5.09v-47.7h5.09z"/>
<path class="cls-7" transform="translate(-91.55 -294.41)" d="M552.53,407l-1-4.79h-.25a14,14,0,0,1-5,4.28,15.24,15.24,0,0,1-6.24,1.12q-5,0-7.83-2.58c-1.9-1.71-2.84-4.15-2.84-7.32q0-10.19,16.28-10.68l5.71-.18v-2.08q0-4-1.71-5.84c-1.13-1.26-3-1.89-5.44-1.89a22.3,22.3,0,0,0-9.51,2.57l-1.56-3.89a23.94,23.94,0,0,1,5.44-2.11,23.23,23.23,0,0,1,5.94-.77q6,0,8.91,2.67c1.93,1.77,2.89,4.63,2.89,8.55V407ZM541,403.43a10.33,10.33,0,0,0,7.47-2.61,9.63,9.63,0,0,0,2.71-7.3v-3l-5.09.21c-4,.15-7,.77-8.75,1.89a5.69,5.69,0,0,0-2.69,5.2,5.23,5.23,0,0,0,1.68,4.2A6.92,6.92,0,0,0,541,403.43Z"/>
<path class="cls-7" transform="translate(-91.55 -294.41)" d="M559.26,373.41h5.45l7.36,19.16a72.94,72.94,0,0,1,3,9.48h.24c.27-1,.83-2.83,1.67-5.35s3.63-10.29,8.33-23.29h5.46l-14.44,38.27q-2.15,5.67-5,8.05a10.68,10.68,0,0,1-7,2.37,20.43,20.43,0,0,1-4.61-.52V417.5a17.55,17.55,0,0,0,3.78.37q5.24,0,7.48-5.89l1.87-4.78Z"/>
<path class="cls-7" transform="translate(-91.55 -294.41)" d="m403.24 376.53a11.85 11.85 0 0 1 5 9.49c0 5.2-3 7.67-5.9 10-0.92 0.92-2 1.9-2 3.45a3.84 3.84 0 0 0 1.83 3l2.53 2c3.09 2.6 5.9 5 5.9 9.84 0 6.61-6.4 13.28-18.48 13.28-10.2 0-15.12-4.84-15.12-10.05 0-2.53 1.26-6.11 5.42-8.58 4.35-2.67 10.26-3 13.42-3.23-1-1.26-2.11-2.6-2.11-4.77a6.36 6.36 0 0 1 0.7-2.75c-0.77 0.07-1.54 0.14-2.25 0.14-7.45 0-11.66-5.55-11.66-11a12.63 12.63 0 0 1 4.49-9.42c4-3.3 8.79-3.87 12.59-3.87h14.5l-4.5 2.53zm-5 31.21a11.43 11.43 0 0 0-1.61-0.07 28 28 0 0 0-7.39 1.13c-1.54 0.56-6 2.25-6 7.24s4.85 8.58 12.37 8.58c6.75 0 10.33-3.24 10.33-7.6-0.03-3.59-2.35-5.48-7.69-9.28zm2-13.35a7.14 7.14 0 0 0 1.75-5.14c0-5.06-3-12.93-8.85-12.93a6.55 6.55 0 0 0-4.92 2.32 8.14 8.14 0 0 0-1.55 5.2c0 4.71 2.74 12.52 8.79 12.52a7.22 7.22 0 0 0 4.83-1.97z"/>
<path class="cls-7" transform="translate(-91.55 -294.41)" d="m359 406.62c-11.16 0-17.12-8.7-17.12-16.57 0-9.19 7.51-17.05 18.18-17.05a16.41 16.41 0 0 1 16.77 16.56c-0.01 8.28-6.4 17.06-17.83 17.06zm8.77-5.68a12.7 12.7 0 0 0 2.11-7.8c0-6.17-2.95-18-11.65-18a9.77 9.77 0 0 0-6.32 2.39c-2.73 2.45-3.23 5.54-3.23 8.56 0 6.94 3.44 18.38 11.94 18.38a9 9 0 0 0 7.14-3.53z"/>
<path class="cls-7" transform="translate(-91.55 -294.41)" d="m321 406.62c-11.16 0-17.12-8.7-17.12-16.57 0-9.19 7.51-17.05 18.18-17.05a16.41 16.41 0 0 1 16.77 16.56c-0.05 8.28-6.44 17.06-17.83 17.06zm8.78-5.68a12.76 12.76 0 0 0 2.1-7.8c0-6.17-2.95-18-11.65-18a9.74 9.74 0 0 0-6.31 2.39c-2.74 2.45-3.23 5.54-3.23 8.56 0 6.94 3.43 18.38 11.93 18.38a9 9 0 0 0 7.11-3.53z"/>
<path class="cls-7" transform="translate(-91.55 -294.41)" d="M298.47,405.52l-10.09,2.33A75.6,75.6,0,0,1,276.74,409c-19.48,0-26.88-14.32-26.88-25.54,0-13.68,10.51-26.38,28.5-26.38a40.53,40.53,0,0,1,10.79,1.48,27.54,27.54,0,0,1,9.32,4.37l-5.86,5.58-2.47.56,1.77-2.82c-2.4-2.33-6.78-6.63-15.1-6.63-11.15,0-19.55,8.47-19.55,20.81,0,13.26,9.6,25.75,25,25.75a21,21,0,0,0,9-1.76V393.1l-10.65.56,5.64-3h15l-1.84,1.76a1.68,1.68,0,0,0-.7,1.13c-.08.63-.14,2.68-.14,3.39Z"/>
<path class="cls-7" transform="translate(-91.55 -294.41)" d="m425.54 403.49c-2.33-0.22-2.81-0.64-2.81-3.39v-39.93-0.46c0.29-2.47 1-2.89 3.18-4.16h-10.06l-5.29 2.54h5.44v43.56c0 1.41-0.28 1.62-1.91 3.74h12.49l2.61-1.55c-1.25-0.14-2.45-0.21-3.65-0.35z"/>
<path class="cls-7" transform="translate(-91.55 -294.41)" d="M454.25,404.14c-.77.42-1.54.91-2.31,1.26a16.29,16.29,0,0,1-6.8,1.33,15,15,0,0,1-9.32-2.74c-5-3.5-7.14-9.53-7.14-14.78,0-10.86,8.83-16.18,16-16.18a13.53,13.53,0,0,1,7.22,2,11.58,11.58,0,0,1,4.9,6.93l-16.46,6.66L435,389c1.74,8.9,7.77,14.08,14.43,14.08a18.11,18.11,0,0,0,8.55-2.45Zm-6.58-20.89c1.33-.49,2-.91,2-1.89,0-2.8-3.15-6-6.94-6-2.81,0-8.06,2.17-8.06,9.73,0,1.2.14,2.46.22,3.72Z"/>
<path class="cls-7" transform="translate(-91.55 -294.41)" d="M461,373.5v4.63h-.57V373.5h-1.53V373h3.62v.47Z"/>
<path class="cls-7" transform="translate(-91.55 -294.41)" d="m467.32 378.13v-4.67l-1.42 4.67h-0.44l-1.46-4.67v4.67h-0.51v-5.13h0.88l1.3 4.12 1.28-4.12h0.88v5.1z"/>
<path class="cls-8" transform="translate(-91.55 -294.41)" d="M263.87,343.38h-3.51a23.36,23.36,0,0,0-1-4.1H254.3a21.82,21.82,0,0,0-1,4.1H250c0-.29.85-2.62,2.55-7a54.74,54.74,0,0,0,2.56-7.25h4.14a62.57,62.57,0,0,0,2.32,7.14A62.09,62.09,0,0,1,263.87,343.38Zm-5.06-6.19a63.62,63.62,0,0,1-1.88-6.11h-.17q0,.42-1.94,6.11Z"/>
<path class="cls-8" transform="translate(-91.55 -294.41)" d="M278,343.38h-2.71q0-.45-3-4.74c-2.11-3-3.3-5.08-3.6-6.19h-.17a39,39,0,0,1,.27,4.33q0,2.72.16,6.6h-2.7q.17-3.39.16-7.46t-.16-6.8h3.25c0,.38.91,1.93,2.71,4.63a27.64,27.64,0,0,1,3.31,5.84h.16a42.78,42.78,0,0,1-.26-4.38q0-3-.15-6.09H278c-.11,1.81-.16,4.07-.16,6.8S277.89,341.15,278,343.38Z"/>
<path class="cls-8" transform="translate(-91.55 -294.41)" d="M293.88,335.75a8.09,8.09,0,0,1-2,5.44,7,7,0,0,1-5.59,2.32c-1.08,0-2.57,0-4.47-.13.1-2.21.15-4.69.15-7.46s-.05-4.93-.15-6.8h1.92l1.4,0,1.22,0q4,0,5.74,2A6.85,6.85,0,0,1,293.88,335.75Zm-3,.48a5.26,5.26,0,0,0-1.22-3.55,4.66,4.66,0,0,0-3.75-1.44,10.68,10.68,0,0,0-1.29.1c.07,1.46.11,3,.11,4.58s0,3.48.11,5.19a6.84,6.84,0,0,0,1.42.14,4.13,4.13,0,0,0,3.49-1.46A5.6,5.6,0,0,0,290.88,336.23Z"/>
<path class="cls-8" transform="translate(-91.55 -294.41)" d="m308.52 343.38h-3.25a20.82 20.82 0 0 0-1.95-4.79 2.56 2.56 0 0 0-2.19-0.91h-1.21c0 1.88 0 3.78 0.1 5.69h-3c0.09-2.21 0.14-4.69 0.14-7.46s-0.05-4.93-0.14-6.8h1.9 1.37 1.93c3.36 0 5 1.15 5 3.44a3.84 3.84 0 0 1-2.87 3.8v0.17a3.39 3.39 0 0 1 1.94 1.72 37.28 37.28 0 0 1 2.23 5.14zm-4.11-10.08c0-1.45-0.94-2.18-2.81-2.18a9.72 9.72 0 0 0-1.81 0.15c0.08 1.14 0.12 2.61 0.12 4.43h1c2.34 0.02 3.5-0.79 3.5-2.4z"/>
<path class="cls-8" transform="translate(-91.55 -294.41)" d="m324.22 336a7.82 7.82 0 0 1-2.06 5.58 6.65 6.65 0 0 1-5.09 2.21 6.41 6.41 0 0 1-4.84-2 7.15 7.15 0 0 1-2-5.16 7.82 7.82 0 0 1 2.06-5.58 6.65 6.65 0 0 1 5.09-2.21 6.44 6.44 0 0 1 4.84 2 7.16 7.16 0 0 1 2 5.16zm-3 0.32a5.66 5.66 0 0 0-1.17-3.71 3.63 3.63 0 0 0-2.9-1.43 3.33 3.33 0 0 0-2.71 1.44 5.7 5.7 0 0 0-1.12 3.63 5.6 5.6 0 0 0 1.18 3.7 3.57 3.57 0 0 0 2.88 1.43 3.33 3.33 0 0 0 2.72-1.44 5.69 5.69 0 0 0 1.1-3.64z"/>
<path class="cls-8" transform="translate(-91.55 -294.41)" d="m330.42 343.38h-3.1q0.14-3.39 0.14-7.46t-0.14-6.8h3.1c-0.1 1.84-0.15 4.1-0.15 6.8s0.05 5.24 0.15 7.46z"/>
<path class="cls-8" transform="translate(-91.55 -294.41)" d="M346.3,335.75a8.09,8.09,0,0,1-2,5.44,7,7,0,0,1-5.58,2.32c-1.09,0-2.58,0-4.47-.13.09-2.21.14-4.69.14-7.46s-.05-4.93-.14-6.8h1.91l1.4,0,1.22,0q4,0,5.74,2A6.85,6.85,0,0,1,346.3,335.75Zm-3,.48a5.27,5.27,0,0,0-1.23-3.55,4.66,4.66,0,0,0-3.75-1.44,10.68,10.68,0,0,0-1.29.1c.07,1.46.11,3,.11,4.58s0,3.48.11,5.19a6.84,6.84,0,0,0,1.42.14,4.12,4.12,0,0,0,3.49-1.46A5.6,5.6,0,0,0,343.31,336.23Z"/>
<path class="cls-8" transform="translate(-91.55 -294.41)" d="m367.36 343.38h-3.5a23.84 23.84 0 0 0-1-4.1h-5.06a21 21 0 0 0-1 4.1h-3.3a74.49 74.49 0 0 1 2.56-7 56.55 56.55 0 0 0 2.56-7.25h4.14a60.24 60.24 0 0 0 2.32 7.14 63.1 63.1 0 0 1 2.28 7.11zm-5.06-6.19a61.61 61.61 0 0 1-1.87-6.11h-0.18a62.69 62.69 0 0 1-1.94 6.11z"/>
<path class="cls-8" transform="translate(-91.55 -294.41)" d="m380.14 332.85a4.28 4.28 0 0 1-1.94 3.87 8.69 8.69 0 0 1-4.77 1.25h-0.74q0 2.06 0.12 5.43h-3.08q0.15-3.17 0.15-7.46 0-3.94-0.15-6.8h1.91 1.56 2a6.27 6.27 0 0 1 3.52 0.94 3.2 3.2 0 0 1 1.42 2.77zm-2.82 0.6q0-2.34-3.12-2.34a8.82 8.82 0 0 0-1.64 0.16c0.08 1.38 0.12 3 0.12 4.69a6.22 6.22 0 0 0 0.64 0c2.68 0.04 4-0.82 4-2.51z"/>
<path class="cls-8" transform="translate(-91.55 -294.41)" d="m393.28 332.85a4.28 4.28 0 0 1-1.94 3.87 8.69 8.69 0 0 1-4.77 1.25h-0.74q0 2.06 0.12 5.43h-3.07q0.14-3.17 0.14-7.46 0-3.94-0.14-6.8h1.9 1.56 2a6.27 6.27 0 0 1 3.52 0.94 3.18 3.18 0 0 1 1.42 2.77zm-2.82 0.6c0-1.56-1-2.34-3.11-2.34a8.84 8.84 0 0 0-1.65 0.16c0.08 1.38 0.12 3 0.12 4.69a6.22 6.22 0 0 0 0.64 0c2.66 0.04 4-0.82 4-2.51z"/>
<path class="cls-8" transform="translate(-91.55 -294.41)" d="m414.77 336a7.87 7.87 0 0 1-2.06 5.58 6.67 6.67 0 0 1-5.1 2.21 6.41 6.41 0 0 1-4.84-2 7.15 7.15 0 0 1-1.95-5.16 7.87 7.87 0 0 1 2.06-5.58 6.65 6.65 0 0 1 5.09-2.21 6.46 6.46 0 0 1 4.85 2 7.16 7.16 0 0 1 1.95 5.16zm-3 0.32a5.66 5.66 0 0 0-1.17-3.71 3.62 3.62 0 0 0-2.89-1.43 3.35 3.35 0 0 0-2.71 1.42 5.76 5.76 0 0 0-1.12 3.63 5.66 5.66 0 0 0 1.18 3.7 3.6 3.6 0 0 0 2.89 1.43 3.35 3.35 0 0 0 2.72-1.44 5.74 5.74 0 0 0 1.07-3.62z"/>
<path class="cls-8" transform="translate(-91.55 -294.41)" d="M429.62,343.38h-2.71q0-.45-3-4.74c-2.11-3-3.3-5.08-3.6-6.19h-.17a39,39,0,0,1,.27,4.33q0,2.72.16,6.6h-2.7q.17-3.39.17-7.46t-.17-6.8h3.26c0,.38.9,1.93,2.7,4.63a27.17,27.17,0,0,1,3.31,5.84h.16a42.78,42.78,0,0,1-.26-4.38q0-3-.15-6.09h2.74c-.11,1.81-.16,4.07-.16,6.8S429.51,341.15,429.62,343.38Z"/>
</svg>
