<svg id="Layer_1" data-name="Layer 1" xmlns="http://www.w3.org/2000/svg" viewBox="0 0 1485.03 323.86"><defs><style>.cls-1{fill:#fff;}</style></defs><title>light logo</title><path class="cls-1" d="M1613,419.27a28.76,28.76,0,0,1-.41-39.58c.13-.14.26-.28.41-.42H299.47L254.72,589.33l-.43,2a38.32,38.32,0,1,0,40.29,10.26c-.65-.7-1.33-1.38-2-2l.43-2,18.81-88.28h80l8.52-40h-80l10.65-50H891.88L864.57,547.61l-63.71-78.34h-40l-40.1,188.28h40l27.41-128.7,63.64,78.73h40l40.07-188.31ZM294.37,627.64a27.86,27.86,0,1,1-7.44-18.95A27.87,27.87,0,0,1,294.37,627.64Z" transform="translate(-228.19 -342.09)"/><path class="cls-1" d="M1654.48,419.78c-.26.28-.52.55-.79.82l7.15,7.15c.36-.36.71-.72,1.05-1.09a40.28,40.28,0,0,0-1.05-55.88l-7.15,7.15a30.17,30.17,0,0,1,.79,41.85Z" transform="translate(-228.19 -342.09)"/><path class="cls-1" d="M1675.19,356.44h0l-7.19,7.19a50.36,50.36,0,0,1,1.31,69.9c-.43.46-.86.92-1.31,1.37l7.19,7.19c.54-.54,1.06-1.08,1.58-1.64a60.55,60.55,0,0,0-1.57-84Z" transform="translate(-228.19 -342.09)"/><path class="cls-1" d="M1633.69,419.27a20,20,0,1,0-20-20A20,20,0,0,0,1633.69,419.27Z" transform="translate(-228.19 -342.09)"/><path class="cls-1" d="M1689.53,342.09l-7.1,7.1a70.78,70.78,0,0,1,1.84,98.23c-.6.65-1.22,1.29-1.85,1.91l7.11,7.11c.72-.72,1.41-1.45,2.1-2.19a80.83,80.83,0,0,0-2.1-112.16Z" transform="translate(-228.19 -342.09)"/><rect class="cls-1" x="422.06" y="167.2" width="80" height="40"/><path class="cls-1" d="M989.83,469.92c-33.14,0-60,26.58-60,59.37s26.86,59.37,60,59.37a60.12,60.12,0,0,0,51.4-28.72L1019,550c-10,10-19.95,11.15-29.19,11.15-11.72,0-21.67-9.14-25.18-21.82H1049a59.7,59.7,0,0,0,.86-10.08C1049.83,496.5,1023,469.92,989.83,469.92Zm-25.18,49.29c3.5-12.68,13.45-21.83,25.18-21.83s21.67,9.15,25.17,21.83Z" transform="translate(-228.19 -342.09)"/><path class="cls-1" d="M266.5,607.88A19.77,19.77,0,1,0,281,614.2,19.67,19.67,0,0,0,266.5,607.88Z" transform="translate(-228.19 -342.09)"/><path class="cls-1" d="M1109.45,429.31h-33V459h-20v28.21h20v67.27c0,26.91,13.67,34.93,33.85,34.93,11.07,0,19.09-2.6,26-6.72V556.26a33.61,33.61,0,0,1-16.28,4.12c-7.37,0-10.63-3.69-10.63-11.28V487.25h27.34V459h-27.34Z" transform="translate(-228.19 -342.09)"/><polygon class="cls-1" points="1055.02 202.17 1030.03 127.16 1030.03 127.14 1000.03 127.14 1000.03 127.16 975.02 202.24 950.03 127.21 920.03 127.21 960.03 247.3 990.03 247.3 990.01 247.25 990.03 247.25 1015.03 172.18 1040.03 247.23 1070.03 247.23 1070.01 247.18 1070.03 247.18 1110.03 127.09 1080.03 127.09 1055.02 202.17"/><path class="cls-1" d="M1401.13,468.42a60.12,60.12,0,1,0,60.12,60.12A60.12,60.12,0,0,0,1401.13,468.42Zm0,92c-15.08,0-27.3-14.28-27.3-31.9s12.22-31.9,27.3-31.9,27.31,14.28,27.31,31.9S1416.21,560.45,1401.13,560.45Z" transform="translate(-228.19 -342.09)"/><path class="cls-1" d="M1507.69,489.08V469.35h-30v120.1h30V528.16c1.1-29.88,40-28.28,40-28.28v-30.1C1510.79,469.76,1507.91,486.47,1507.69,489.08Z" transform="translate(-228.19 -342.09)"/><polygon class="cls-1" points="1447.2 127.76 1425.74 128 1404.53 128 1366.14 166.4 1366.13 166.4 1366.13 86.97 1336.13 86.97 1336.13 246.54 1366.13 246.54 1366.13 208.82 1403.88 246.57 1447.2 246.54 1425.09 225.35 1387.35 187.61 1425.74 149.21 1447.2 127.76"/><path class="cls-1" d="M487,529.44s0,20-20,20-20-20-20-20v-60l-30-.1v80.09s-1.43,40,34.28,40,35.72-20,35.72-20v20l30-.07v-120H487Z" transform="translate(-228.19 -342.09)"/><path class="cls-1" d="M599.32,469.4c-35.71-.07-35.71,20-35.71,20v-20l-30,.07v120h30v-60s0-20,20-20,20,20,20,20v60l30,.1V509.43S635,469.47,599.32,469.4Z" transform="translate(-228.19 -342.09)"/></svg>