<svg id="Layer_1" data-name="Layer 1" xmlns="http://www.w3.org/2000/svg" xmlns:xlink="http://www.w3.org/1999/xlink" viewBox="0 0 1485.03 323.86"><defs><style>.cls-1{fill:url(#linear-gradient);}</style><linearGradient id="linear-gradient" x1="228.19" y1="504.02" x2="1713.22" y2="504.02" gradientUnits="userSpaceOnUse"><stop offset="0" stop-color="#6f62cb"/><stop offset="1" stop-color="#4bcefc"/></linearGradient></defs><title>logo_gradient</title><path class="cls-1" d="M1613,419.27a28.76,28.76,0,0,1-.41-39.58c.13-.14.26-.28.41-.42H299.47L254.72,589.33l-.43,2a38.32,38.32,0,1,0,40.29,10.26c-.65-.7-1.33-1.38-2-2l.43-2,18.81-88.28h80l8.52-40h-80l10.65-50H891.88L864.57,547.61l-63.71-78.34h-40l-40.1,188.28h40l27.41-128.7,63.64,78.73h40l40.07-188.31ZM294.37,627.64a27.86,27.86,0,1,1-7.44-18.95A27.87,27.87,0,0,1,294.37,627.64ZM1662.53,399.26a30.09,30.09,0,0,0-8.84-21.33l7.15-7.15a40.28,40.28,0,0,1,1.05,55.88c-.34.37-.69.73-1.05,1.09l-7.15-7.15c.27-.27.53-.54.79-.82A30.12,30.12,0,0,0,1662.53,399.26Zm30.4,0a60.42,60.42,0,0,1-16.17,41.19c-.52.56-1,1.1-1.58,1.64L1668,434.9c.45-.45.88-.91,1.31-1.37a50.36,50.36,0,0,0-1.31-69.9l7.19-7.19h0A60.37,60.37,0,0,1,1692.93,399.26Zm-79.23,0a20,20,0,1,1,20,20A19.94,19.94,0,0,1,1613.7,399.27Zm99.52,0a80.67,80.67,0,0,1-21.59,55c-.69.74-1.38,1.47-2.1,2.19l-7.11-7.11c.63-.62,1.25-1.26,1.85-1.91a70.78,70.78,0,0,0-1.84-98.23l7.1-7.1A80.6,80.6,0,0,1,1713.22,399.26Zm-983,150h-80v-40h80Zm259.58-79.37c-33.14,0-60,26.58-60,59.37s26.86,59.37,60,59.37a60.12,60.12,0,0,0,51.4-28.72L1019,550c-10,10-19.95,11.15-29.19,11.15-11.72,0-21.67-9.14-25.18-21.82H1049a59.7,59.7,0,0,0,.86-10.08C1049.83,496.5,1023,469.92,989.83,469.92Zm-25.18,49.29c3.5-12.68,13.45-21.83,25.18-21.83s21.67,9.15,25.17,21.83ZM281,614.2a19.76,19.76,0,1,1-14.49-6.32A19.74,19.74,0,0,1,281,614.2ZM1109.45,459h27.34v28.21h-27.34V549.1c0,7.59,3.26,11.28,10.63,11.28a33.61,33.61,0,0,0,16.28-4.12v26.47c-6.95,4.12-15,6.72-26,6.72-20.18,0-33.85-8-33.85-34.93V487.25h-20V459h20V429.31h33Zm198.77,10.14h30l-40,120.09h0l0,.05h-30l-25-75.05-25,75.07h0l0,0h-30l-40-120.09h30l25,75,25-75.08v0h30v0l25,75Zm92.91-.76a60.12,60.12,0,1,0,60.12,60.12A60.12,60.12,0,0,0,1401.13,468.42Zm0,92c-15.08,0-27.3-14.28-27.3-31.9s12.22-31.9,27.3-31.9,27.31,14.28,27.31,31.9S1416.21,560.45,1401.13,560.45Zm146.56-90.67v30.1s-38.9-1.6-40,28.28v61.29h-30V469.35h30v19.73C1507.91,486.47,1510.79,469.76,1547.69,469.78Zm106.24,21.52-38.39,38.4,37.74,37.74,22.11,21.19-43.32,0-37.75-37.75v37.72h-30V429.06h30v79.43h0l38.39-38.4h21.21l21.46-.24ZM487,469.43h30v120l-30,.07v-20s0,20-35.72,20-34.28-40-34.28-40V469.33l30,.1v60s0,20.06,20,20,20-20,20-20Zm146.63,40v80.09l-30-.1v-60s0-20.06-20-20-20,20-20,20v60h-30v-120l30-.07v20s0-20,35.71-20S633.61,509.43,633.61,509.43Z" transform="translate(-228.19 -342.09)"/></svg>